<svg xmlns="http://www.w3.org/2000/svg" width="98.268" height="100" viewBox="0 0 98.268 100">
  <path id="パス_1" data-name="パス 1" d="M29.807,29.3a.85.85,0,0,1-.745-.946l.555-4.694a.852.852,0,1,1,1.693.189l0,.011-.555,4.695a.851.851,0,0,1-.844.751A.872.872,0,0,1,29.807,29.3ZM23.8,29.1l-.642-2.275a.852.852,0,1,1,1.633-.487l.007.025.641,2.274a.853.853,0,0,1-.591,1.052.89.89,0,0,1-.229.031h0A.854.854,0,0,1,23.8,29.1Zm11.131,1.822a.854.854,0,0,1-.851-.854.863.863,0,0,1,.109-.415l1.156-2.062a.852.852,0,0,1,1.486.832l-1.156,2.063a.851.851,0,0,1-.743.436ZM19.941,32.127a.848.848,0,0,1-.669-.325l-2.9-3.679a.879.879,0,0,1,0-1.119.852.852,0,0,1,1.311.032l2.927,3.712a.851.851,0,0,1-.668,1.379Zm-3.49,4h0a.841.841,0,0,1-.415-.109l-2.026-1.136a.88.88,0,0,1-.428-1.034.853.853,0,0,1,1.224-.472l2.031,1.139a.877.877,0,0,1,.456.9.853.853,0,0,1-.84.71ZM14.712,41.2l-4.694-.556a.852.852,0,1,1,.189-1.693h.011l4.695.556a.852.852,0,0,1-.1,1.7C14.78,41.2,14.746,41.2,14.712,41.2ZM54.2,23.7l-2.076-3.629.868,3.629Zm1.985,3.468-1.323-2.313H53.27l.179.746a1.239,1.239,0,0,1-.021.667l-.27.9Zm1.82,3.179-1.158-2.023H52.811L52.2,30.347Zm1.985,3.468L58.668,31.5H52.983l2.4,2.312Zm1.984,3.468-1.323-2.312H56.847l1.305.9a1.266,1.266,0,0,1,.531.806l.127.606Zm-3.937,4.634-.991-4.737-2.11-1.454a1.333,1.333,0,0,1-.165-.133l-4.031-3.884a1.272,1.272,0,0,1-.34-1.292l1.362-4.534L49.6,16.805,35.6,41.27a.852.852,0,0,1-1.479-.845h0L48.946,14.511,41.372,1.274A.851.851,0,1,1,42.848.428L49.929,12.8,57.006.428a.852.852,0,0,1,1.479.846L50.908,14.515l14.83,25.91a.851.851,0,0,1-.317,1.161h0A.839.839,0,0,1,65,41.7a.85.85,0,0,1-.738-.429l-1.621-2.832H59.051l.654,3.129a.852.852,0,0,1-.659,1.008.946.946,0,0,1-.176.017A.85.85,0,0,1,58.039,41.917ZM12.1,46.279a.853.853,0,0,1,.619-.818L15,44.819a.852.852,0,1,1,.463,1.639l-2.275.642a.851.851,0,0,1-1.082-.821Zm10.154,4.2a.85.85,0,0,1-.549-.2A10.924,10.924,0,0,1,34.46,32.613a.851.851,0,1,1-.891,1.451A9.222,9.222,0,0,0,22.807,48.978a.851.851,0,0,1-.549,1.5Zm-9.184,2.81a.852.852,0,0,1,.324-.669l3.713-2.927a.851.851,0,0,1,1.054,1.337l-3.712,2.928a.852.852,0,0,1-1.379-.669ZM47.4,49.133h.678a1.147,1.147,0,0,0,1.01-.376,1.937,1.937,0,0,0,.259-1.1,1.666,1.666,0,0,0-.287-1.063,1.285,1.285,0,0,0-1.04-.353H47.4Zm0,4.913h.669a1.628,1.628,0,0,0,.738-.137.953.953,0,0,0,.4-.38,1.428,1.428,0,0,0,.167-.578c.02-.223.029-.466.029-.73a4.887,4.887,0,0,0-.045-.715,1.3,1.3,0,0,0-.183-.517.869.869,0,0,0-.41-.312,1.965,1.965,0,0,0-.685-.1H47.4Zm.336,1.156h-2.07V44.8h2.218a3.144,3.144,0,0,1,1.243.219,2.345,2.345,0,0,1,.842.585,2.175,2.175,0,0,1,.469.84,3.462,3.462,0,0,1,.141.986v.38a3.248,3.248,0,0,1-.067.716,1.708,1.708,0,0,1-.2.511,2.083,2.083,0,0,1-.774.7,1.64,1.64,0,0,1,.789.731,2.851,2.851,0,0,1,.253,1.315v.584a2.989,2.989,0,0,1-.677,2.1,2.829,2.829,0,0,1-2.165.73Zm-13.92-1.156h.647a.991.991,0,0,0,.839-.322,1.669,1.669,0,0,0,.248-1.013V47.563a1.733,1.733,0,0,0-.234-.975.955.955,0,0,0-.853-.345h-.647ZM32.369,44.8h2.248a2.639,2.639,0,0,1,1.987.7,2.743,2.743,0,0,1,.678,1.987v4.867a2.5,2.5,0,0,1-2.8,2.849H32.369Zm30.722,4.954L61.148,44.8h1.577l1.126,3.083,1.14-3.083H66.57l-1.989,4.953L66.73,55.2H65.152l-1.3-3.506L62.565,55.2H60.986Zm6.272,4.294h.647a.99.99,0,0,0,.839-.322,1.669,1.669,0,0,0,.248-1.013V47.563a1.733,1.733,0,0,0-.234-.975.955.955,0,0,0-.853-.345h-.647ZM67.918,44.8h2.248a2.643,2.643,0,0,1,1.988.7,2.739,2.739,0,0,1,.677,1.987v4.867a2.5,2.5,0,0,1-2.8,2.849H67.918ZM27.374,51.734h1.484l-.728-3.757H28.1Zm2.252,3.757-.453-2.312h-2.1l-.454,2.312H25.1L27.484,44.8h1.277l2.388,10.693Zm22.974,0V44.8h4.624v1.445H54.045v3.179h2.6v1.445h-2.6v3.179h3.179v1.445ZM40.762,46.564a1,1,0,0,0-.3.8v5.511a1,1,0,0,0,.3.8,1.112,1.112,0,0,0,1.421,0,.993.993,0,0,0,.3-.8V47.363a.993.993,0,0,0-.3-.8,1.111,1.111,0,0,0-1.421,0Zm-.08,8.893a2.455,2.455,0,0,1-.829-.5,2.329,2.329,0,0,1-.609-.806,2.742,2.742,0,0,1-.228-1.171V47.259a2.767,2.767,0,0,1,.228-1.157,2.437,2.437,0,0,1,.609-.837,2.568,2.568,0,0,1,.829-.487,2.711,2.711,0,0,1,1.871,0,2.783,2.783,0,0,1,.844.487,2.559,2.559,0,0,1,.593.837,2.753,2.753,0,0,1,.229,1.157v5.719a2.758,2.758,0,0,1-.229,1.171,2.407,2.407,0,0,1-.593.806,2.63,2.63,0,0,1-.844.5,2.7,2.7,0,0,1-1.871,0Zm22.543,6.665h-.01a1.589,1.589,0,0,1-1.084-2.346,1.562,1.562,0,0,1,.555-.578A1.6,1.6,0,0,1,65.1,60.61a1.7,1.7,0,0,1-1.692,1.522A1.646,1.646,0,0,1,63.225,62.122ZM37.173,67.63h.094l-.079,0Zm35.3-7.845c-.4.719-.785,1.518-1.161,2.358-.149.335-.3.676-.442,1.023h0c.148-.014.3-.031.449-.051a40.927,40.927,0,0,0,2.71-4.533,2.264,2.264,0,0,0,.222-.929c0-.059,0-.107-.008-.142A5.675,5.675,0,0,0,72.475,59.785ZM45.454,72.937a7.892,7.892,0,0,0-2.361,5,1.648,1.648,0,0,0,.269.932.811.811,0,0,0,.672.352c1.813-.028,3.9-2.853,4.847-4.52l.04-.065a40.228,40.228,0,0,1,2.121-4.385c-.1-.008-.218-.015-.325-.015h-.025A7.7,7.7,0,0,0,45.454,72.937ZM27.165,81.118a1,1,0,0,1-.247-.665.969.969,0,0,1,.192-.608c1.528-1.8,6.755-8.531,8.962-11.324l.115-.145c.3-.373.56-.7,1-.742a2.246,2.246,0,0,1,.744.36.95.95,0,0,1,.26.629,1.6,1.6,0,0,1-.258.823l-.1.151a2.557,2.557,0,0,0-.075.345h.66a2.4,2.4,0,0,1,1.26.3,1.635,1.635,0,0,1,.523,1.188c.016,1.056-.975,2.82-1.774,4.238l-.231.411a8.721,8.721,0,0,0-1.352,3.037c0,.035.006.049.011.054s.022.011.054.011a.46.46,0,0,0,.186-.068,26.99,26.99,0,0,0,4.014-3.986c.359-.411.716-.819,1.08-1.217L42.2,73.9a11.829,11.829,0,0,1,1.917-2.563,9.775,9.775,0,0,1,6.582-3.23,5.411,5.411,0,0,1,2.29.407c.219.128.637.371.644.792a.945.945,0,0,1-.089.38c-.011.027-.021.054-.032.078a46.749,46.749,0,0,1-2.84,5.665,9.467,9.467,0,0,0-.679,2.87c0,.335.146.695.445.693a1.861,1.861,0,0,0,.945-.514c2.7-2.1,4.814-5.016,6.855-7.719.519-.687,1.236-1.749,1.756-2.436a1.117,1.117,0,0,1,.761-.4c1.435.006.882,1.456.555,2.261-.228.557-.628,1.5-.851,2.06-.543,1.366-1.162,2.7-1.676,4.081a6.855,6.855,0,0,0-.586,2.385c0,.062,0,.131.007.188a2.064,2.064,0,0,0,.66-.4c1.933-1.819,3.742-3.865,4.422-4.636l.057-.062.005-.008a.758.758,0,0,1,.134-.193c.327-.331,1.149-1.329,2.263-2.8.82-2.272,1.543-4.156,2.172-5.706A100.809,100.809,0,0,1,52.315,65a127.96,127.96,0,0,1-21.146-3.715c-.178.338-.389.8-.669,1.456-.356.837-.694,1.683-1.045,2.521q-1.779,4.257-3.555,8.517c-.158.379-.321.755-.482,1.13l-1.507,3.532-.659,1.546c-.236.553-.448,1.31-1.18,1.314a.926.926,0,0,1-.888-1.33c.588-1.477,1.253-2.946,1.878-4.411,1.668-3.9,3.222-7.867,4.943-11.748.2-.45.38-.888.554-1.309l.13-.316c.219-.543.413-1,.592-1.371-2.619-.656-5.222-1.446-7.9-1.85-3.469-.524-8.057-1.113-10.677,1.8a3.005,3.005,0,0,0,.195,4.207c1.262,1.317,3.394,1.69,5.144,1.682a27.06,27.06,0,0,0,4.652-.384.84.84,0,0,1,1,.547.811.811,0,0,1-.549,1,24.98,24.98,0,0,1-4.3.471q-.448,0-.914-.029a16.549,16.549,0,0,1-3.51-.551C10.407,67.135,8.063,65.5,8.112,62.8a4.748,4.748,0,0,1,.479-1.927c1.708-3.62,6.175-4.438,9.759-4.138s7.111,1.445,10.592,2.326c3.86.977,7.734,1.91,11.643,2.675a99.338,99.338,0,0,0,11.847,1.652,97.609,97.609,0,0,0,16.179.015c1.023-2.419,1.7-3.759,2.016-4.377l.093-.181c1.178-2.218,2.409-3.347,3.659-3.364a1.666,1.666,0,0,1,1.435.71,2.567,2.567,0,0,1,.429,1.434,3.846,3.846,0,0,1-.417,1.81,33.01,33.01,0,0,1-1.907,3.334c4.149-.637,8.9-1.848,11.243-4.744l0-.005a.807.807,0,0,1,1.253,1.018c-2.979,3.684-8.989,4.917-13.677,5.526-1.611,2.406-3.53,5.044-5.206,7.216a20.924,20.924,0,0,0-1.558,6.147,1.848,1.848,0,0,0,.079.657c.034.081.092.153.294.149.663-.008,2.791-2.47,3.811-3.652.223-.244.429-.476.624-.695.293-.333,1.139-1.282,1.386-1.537a1.659,1.659,0,0,1,.745-.306h.046a1,1,0,0,1,.976,1.017,1.133,1.133,0,0,1-.3.726c-.313.321-1.258,1.4-1.685,1.9l-.22.261c-1.608,1.879-3.812,4.455-5.547,4.477h-.025c-1.554.01-2.271-1.4-2.291-2.812V77.9s.171-1.356.294-2.023c-.8.9-2.145,2.343-3.95,4.046a3.454,3.454,0,0,1-2.143,1.006h-.021c-1.337,0-1.83-1.117-1.984-2.079v-.035a18.572,18.572,0,0,1,.876-3.185c-2.985,3.331-4.952,5.336-6.474,5.357a2.275,2.275,0,0,1-1.863-.826,2.79,2.79,0,0,1-.54-1.2A11.523,11.523,0,0,1,44.1,81.214h-.032s-2.827-1.3-2.954-3.145a21.274,21.274,0,0,1-2.873,2.7,1.232,1.232,0,0,1-1.3.156h-.043c-1.125.25-1.923-1.784-1.923-1.784v-.166c-.006-1.163.957-2.867,1.665-4.111l.16-.285c.445-.791.95-1.7,1.331-2.451a3.557,3.557,0,0,0,.164-.461l-.746.009a1.812,1.812,0,0,1-1.211-.325c-1.589,2-6.394,8.192-7.718,9.736a1.068,1.068,0,0,1-.713.322h-.057A.937.937,0,0,1,27.165,81.118Zm8.672,7.55,0,0a.444.444,0,0,0,0,.052Zm21.788,8a.577.577,0,1,1,.578.578A.578.578,0,0,1,57.625,96.667Zm15.438,0a.578.578,0,1,1,.578.578A.578.578,0,0,1,73.063,96.667ZM24.74,87.3l.012.014a1.35,1.35,0,0,0,1.1.4,5.849,5.849,0,0,0,1.246-.4c-.731-.029-1.474-.029-2.086-.032h-.252A.044.044,0,0,0,24.74,87.3Zm29.215,2h.957l.694-2.023H54.489A7.633,7.633,0,0,0,53.955,89.306Zm1.918,0h3.663V87.283H56.567Zm4.819,0h3.469V87.283H60.692Zm4.914,0h3.468V87.283H65.606Zm4.624,0h3.757V87.795h0c0-.442-.072-.48-.257-.511h-3.5ZM55.124,86.127H73.76l.073.005a1.4,1.4,0,0,1,1.31,1.573v1.6h2.891v-1.4a2.9,2.9,0,0,0-2.881-2.937H61.619c-1.2,0-4.542.094-5.551.53v0A3.074,3.074,0,0,0,55.124,86.127ZM53.835,92.2a8.68,8.68,0,0,1,2.083-1.735H53.877C53.842,91.039,53.834,91.626,53.835,92.2ZM29.94,93.536a1.621,1.621,0,0,1,.535-.087,1.214,1.214,0,0,1,.208.015L33.531,89.6h-5.74Zm.286.466.009.017L30.252,94A.122.122,0,0,0,30.226,94Zm-5.3.507h1.858a2.805,2.805,0,0,0-1.089-1.69Zm1.254-2.759a3.967,3.967,0,0,1,1.776,2.759h.92a1.4,1.4,0,0,1,.144-.3L26.867,90.25Zm4.29,3.925a.545.545,0,0,0,.543-.545.443.443,0,0,0-.026-.153.538.538,0,0,0-.517-.39.543.543,0,0,0-.093,1.078h0a.391.391,0,0,0,.09.008Zm22.518-.019a.289.289,0,0,0,.28.3h2.245a2.844,2.844,0,0,1,.229-.577H53.273A.29.29,0,0,0,52.993,95.656Zm23.332.3H78.5a.289.289,0,0,0,0-.578H76.1A2.838,2.838,0,0,1,76.325,95.954ZM58.15,93.89a2.98,2.98,0,0,1,2.909,2.353h9.152a2.98,2.98,0,0,1,2.911-2.354,2.931,2.931,0,0,1,1.355.329l3.267,0V90.462H60.183l.046,0h-.05c-.035,0-.069,0-.1,0a7.449,7.449,0,0,0-6.319,3.614v.144H56.7a.594.594,0,0,1,.084.006,2.943,2.943,0,0,1,1.367-.336ZM24.033,92.27a2.817,2.817,0,1,0,2.756,3.4H24.033a.584.584,0,0,1-.528-.339.591.591,0,0,1,.012-.5l1.131-2.486a2.716,2.716,0,0,0-.609-.07Zm12.995,5.707a2.817,2.817,0,1,0-.057-5.633,3.045,3.045,0,0,0-.427.031l.967,2.583,0,0a.576.576,0,0,1-.339.739.545.545,0,0,1-.2.037.579.579,0,0,1-.54-.376l-.968-2.579a2.816,2.816,0,0,0,1.509,5.194h.056Zm-2.443.289a3.952,3.952,0,0,1-1.085-1.25,4.015,4.015,0,0,1,1.47-5.4v0l-.463-1.45-2.782,3.779a1.681,1.681,0,0,1,.346.569,1.7,1.7,0,1,1-3.191,1.15h-.919a3.786,3.786,0,0,1-.114.533,3.96,3.96,0,0,1-1.422,2.068Zm23.8,0a1.605,1.605,0,1,0-.364,0Zm12.957,0a2.468,2.468,0,0,1-.4-.867H60.906a2.492,2.492,0,0,1-.414.867Zm2.373,0a1.611,1.611,0,0,0,1.432-1.6v0a1.61,1.61,0,1,0-1.795,1.6ZM97.907,100H2.091A1.237,1.237,0,0,1,.866,98.752a1.269,1.269,0,0,1,.164-.623L16.157,71.458a.844.844,0,0,1,1.155-.346.875.875,0,0,1,.34,1.176l-.021.037L2.919,98.266H14.161V93.205a10.363,10.363,0,0,1-3.22,2.554.6.6,0,0,1-.26.061.578.578,0,0,1-.263-1.092A9.116,9.116,0,0,0,14.16,91.2V89.3a10.294,10.294,0,0,1-3.219,2.55.578.578,0,1,1-.59-.994.6.6,0,0,1,.067-.034A9.119,9.119,0,0,0,14.16,87.29v-1.9a10.347,10.347,0,0,1-3.219,2.554.6.6,0,0,1-.26.06.578.578,0,0,1-.263-1.092,9,9,0,0,0,3.8-3.64.58.58,0,0,1,.521-.329h0a.584.584,0,0,1,.52.329,8.955,8.955,0,0,0,3.8,3.64.578.578,0,0,1-.521,1.031,10.4,10.4,0,0,1-3.221-2.556v1.893a9.063,9.063,0,0,0,3.742,3.538.578.578,0,0,1-.26,1.092.553.553,0,0,1-.261-.063A10.366,10.366,0,0,1,15.317,89.3V91.19a9.069,9.069,0,0,0,3.742,3.538.578.578,0,0,1-.52,1.031A10.394,10.394,0,0,1,15.317,93.2v5.064h6.319a3.973,3.973,0,0,1,3.5-6.986l1.04-2.291-.084-.153a1.928,1.928,0,0,1-.386.038,2.56,2.56,0,0,1-1.795-.777,1.141,1.141,0,0,1-.233-1.254c.19-.434,1.088-.716,1.088-.716h.221c.724,0,1.626,0,2.485.05a.974.974,0,0,1,.961.793,1.31,1.31,0,0,1-.654,1.36c-.086.042-.168.077-.245.109h6.192l-.5-1.339a.6.6,0,0,1-.039-.2.614.614,0,0,1,.6-.624c.923-.015,1.324-.021,2.234-.021a2.226,2.226,0,0,1,1.9.622,1.587,1.587,0,0,1,.2,1.535,1.52,1.52,0,0,1-1.253.9h-.072a.52.52,0,0,1-.3-.289h-.006c-.3.218-.615-.3-.644-.345a.571.571,0,0,1,.569-.522h.058a1.562,1.562,0,0,1,.179-.032c.235-.028.273-.115.285-.144a.307.307,0,0,0-.044-.3c-.106-.131-.714-.131-.942-.131-.577,0-.952,0-1.375.009l.507,1.248a.1.1,0,0,1,.013.032l.993,2.444a4.793,4.793,0,0,1,.911-.09v-.06s2.754.784,3.454,2.047a3.972,3.972,0,0,1-1.085,5.1h6.591V93.1a21.164,21.164,0,0,1-3.3,2.551.578.578,0,0,1-.523-1.031,9.839,9.839,0,0,0,3.82-3.533V89.19a11.671,11.671,0,0,1-3.3,2.548.578.578,0,1,1-.59-.994.527.527,0,0,1,.067-.034,9.035,9.035,0,0,0,3.8-3.64.584.584,0,0,1,.523-.329.578.578,0,0,1,.52.329,9.038,9.038,0,0,0,3.8,3.64.578.578,0,0,1-.262,1.092.559.559,0,0,1-.26-.064,24.625,24.625,0,0,1-3.431-2.55v1.889a19.755,19.755,0,0,0,3.954,3.539.578.578,0,0,1,.255.777.584.584,0,0,1-.778.253,17.7,17.7,0,0,1-3.142-2.554v5.174h8.837a2.751,2.751,0,0,1-.471-1.156H53.256a1.457,1.457,0,0,1-1.326-.873c-.32-.733.67-1.907.67-1.907V92.82c-.009-2.936-.021-6.954,3.017-8.346,1.4-.642,5.468-.659,5.928-.659H74.856l.049,0a4.042,4.042,0,0,1,4,4.06v6.451h.193a1.453,1.453,0,0,1-.578,2.783H76.37a2.768,2.768,0,0,1-.473,1.156h8.784v-5.2a21.962,21.962,0,0,1-3.323,2.554.578.578,0,0,1-.523-1.031,10.089,10.089,0,0,0,3.846-3.532v-1.9a12.171,12.171,0,0,1-3.323,2.551.578.578,0,1,1-.59-.994.527.527,0,0,1,.067-.034,10.092,10.092,0,0,0,3.846-3.533V85.259a12.257,12.257,0,0,1-3.323,2.55.578.578,0,0,1-.523-1.031,9,9,0,0,0,3.8-3.64.576.576,0,0,1,.52-.329.593.593,0,0,1,.523.329,8.958,8.958,0,0,0,3.8,3.64.578.578,0,0,1-.26,1.092.6.6,0,0,1-.263-.061,24.046,24.046,0,0,1-3.4-2.551v1.887a19.254,19.254,0,0,0,3.924,3.538.578.578,0,0,1-.26,1.092.561.561,0,0,1-.263-.063,17.217,17.217,0,0,1-3.112-2.551v1.89a9.069,9.069,0,0,0,3.742,3.538.578.578,0,0,1-.261,1.092.63.63,0,0,1-.263-.061,10.448,10.448,0,0,1-3.218-2.554v5.2h11.24L78.877,66.4a.876.876,0,0,1,.308-1.186.844.844,0,0,1,1.165.314l18.618,32.6a1.259,1.259,0,0,1-.444,1.705,1.2,1.2,0,0,1-.615.169Z" transform="translate(-0.866 0)" fill="#fff"/>
</svg>
